<svg width="58" height="58" viewBox="0 0 58 58" fill="none" xmlns="http://www.w3.org/2000/svg">
<path d="M40.053 45.694C38.0488 45.694 36.4067 47.371 36.4067 49.4427C36.4067 51.4896 38.0488 53.1667 40.053 53.1667C42.0815 53.1667 43.7235 51.4896 43.7235 49.4427C43.7235 47.371 42.0815 45.694 40.053 45.694ZM12.8867 45.694C10.8824 45.694 9.24038 47.371 9.24038 49.4427C9.24038 51.4896 10.8824 53.1667 12.8867 53.1667C14.9151 53.1667 16.5572 51.4896 16.5572 49.4427C16.5572 47.371 14.9151 45.694 12.8867 45.694ZM51.2859 4.83363L51.0398 4.85446L45.2806 5.73984C44.4595 5.89028 43.8558 6.57836 43.7834 7.41687L43.3246 12.9412C43.2521 13.7329 42.6243 14.3248 41.8516 14.3248H9.2399C7.76688 14.3248 6.80097 14.8427 5.83505 15.9772C4.86914 17.1116 4.70011 18.7393 4.91744 20.2166L7.21148 36.3951C7.64614 39.505 10.2541 41.7961 13.3209 41.7961H39.6662C42.8779 41.7961 45.5341 39.283 45.7997 36.0276L48.0213 9.14324L51.6677 8.50202C52.6336 8.32938 53.3097 7.36755 53.1407 6.38106C52.9717 5.37237 52.0299 4.70402 51.0398 4.85446L51.2859 4.83363ZM17.1845 23.4474H23.8735C24.8877 23.4474 25.6846 24.2612 25.6846 25.297C25.6846 26.3082 24.8877 27.1467 23.8735 27.1467H17.1845C16.1703 27.1467 15.3735 26.3082 15.3735 25.297C15.3735 24.2612 16.1703 23.4474 17.1845 23.4474Z" fill="#363636"/>
</svg>
